HIERARCHY
ROOT Hips
{
 OFFSET 0.000000 0.000000 0.000000
 CHANNELS 6 Xposition Yposition Zposition Yrotation Xrotation Zrotation
 JOINT Chest
 {
  OFFSET 0.000000 10.366939 -0.000175
  CHANNELS 3 Yrotation Xrotation Zrotation
  JOINT Chest2
  {
   OFFSET 0.000000 11.433790 0.000318
   CHANNELS 3 Yrotation Xrotation Zrotation
   JOINT Chest3
   {
    OFFSET 0.000000 10.331133 0.000000
    CHANNELS 3 Yrotation Xrotation Zrotation
    JOINT Chest4
    {
     OFFSET 0.000000 10.331133 0.000000
     CHANNELS 3 Yrotation Xrotation Zrotation
     JOINT Neck
     {
      OFFSET 0.000000 14.530095 0.000000
      CHANNELS 3 Yrotation Xrotation Zrotation
      JOINT Head
      {
       OFFSET 0.000000 9.616255 0.000757
       CHANNELS 3 Yrotation Xrotation Zrotation
       End Site
       {
        OFFSET 0.000000 18.398191 0.000395
       }
      }
     }
     JOINT RightCollar
     {
      OFFSET -3.159467 8.107572 0.000000
      CHANNELS 3 Yrotation Xrotation Zrotation
      JOINT RightShoulder
      {
       OFFSET -14.759419 0.000000 0.000000
       CHANNELS 3 Yrotation Xrotation Zrotation
       JOINT RightElbow
       {
        OFFSET 0.000000 -31.561777 0.000000
        CHANNELS 3 Yrotation Xrotation Zrotation
        JOINT RightWrist
        {
         OFFSET 0.000000 -25.811607 0.000000
         CHANNELS 3 Yrotation Xrotation Zrotation
         End Site
         {
          OFFSET 0.000000 -19.296333 0.000000
         }
        }
       }
      }
     }
     JOINT LeftCollar
     {
      OFFSET 3.159467 8.107572 0.000000
      CHANNELS 3 Yrotation Xrotation Zrotation
      JOINT LeftShoulder
      {
       OFFSET 14.759419 0.000000 0.000000
       CHANNELS 3 Yrotation Xrotation Zrotation
       JOINT LeftElbow
       {
        OFFSET 0.000000 -31.561777 0.000000
        CHANNELS 3 Yrotation Xrotation Zrotation
        JOINT LeftWrist
        {
         OFFSET 0.000000 -25.811607 0.000000
         CHANNELS 3 Yrotation Xrotation Zrotation
         End Site
         {
          OFFSET 0.000000 -19.296333 0.000000
         }
        }
       }
      }
     }
    }
   }
  }
 }
 JOINT RightHip
 {
  OFFSET -8.420485 0.000859 0.000088
  CHANNELS 3 Yrotation Xrotation Zrotation
  JOINT RightKnee
  {
   OFFSET 0.000000 -43.611855 -0.000083
   CHANNELS 3 Yrotation Xrotation Zrotation
   JOINT RightAnkle
   {
    OFFSET 0.000000 -42.630478 -0.000140
    CHANNELS 3 Yrotation Xrotation Zrotation
    JOINT RightToe
    {
     OFFSET 0.000000 -7.539428 17.119853
     CHANNELS 3 Yrotation Xrotation Zrotation
     End Site
     {
      OFFSET 0.000000 -1.595212 6.940629
     }
    }
   }
  }
 }
 JOINT LeftHip
 {
  OFFSET 8.420485 0.000859 0.000088
  CHANNELS 3 Yrotation Xrotation Zrotation
  JOINT LeftKnee
  {
   OFFSET 0.000000 -43.611855 -0.000083
   CHANNELS 3 Yrotation Xrotation Zrotation
   JOINT LeftAnkle
   {
    OFFSET 0.000000 -42.630478 -0.000140
    CHANNELS 3 Yrotation Xrotation Zrotation
    JOINT LeftToe
    {
     OFFSET 0.000000 -7.539428 17.119853
     CHANNELS 3 Yrotation Xrotation Zrotation
     End Site
     {
      OFFSET 0.000000 -1.595212 6.940629
     }
    }
   }
  }
 }
}
MOTION
Frames: 14
Frame Time: 0.008333
381.430136 47.735988 62.895564 -62.307211 -30.138904 -0.198031 -0.548459 17.538897 -0.896487 -0.207033 7.793890 -0.637949 -0.207033 7.793890 -0.637949 -0.146854 5.845642 -0.475066 -4.610226 13.709945 1.561608 -9.326581 -10.451521 4.779914 -1.217676 0.771274 9.907749 -5.301889 -20.139438 -20.370835 51.295097 -62.811990 -31.471959 14.968690 -18.617535 -33.285499 2.021301 2.421915 -8.632448 -0.990005 -29.967819 13.755389 -51.767623 -33.752363 16.663062 -19.565132 -4.903411 -5.906044 -12.853327 -65.603342 -10.408088 178.479879 73.996022 173.438605 0.470777 -10.178613 -1.140789 -0.038854 0.197424 -0.009935 -4.566181 -66.889496 26.898167 -141.737916 72.987417 -143.254401 -1.083798 -3.905789 -0.484463 -0.180184 -0.948278 -0.087130
381.427865 47.736769 62.894798 -62.309071 -30.130990 -0.200325 -0.553024 17.538345 -0.888593 -0.208533 7.795196 -0.635118 -0.208533 7.795196 -0.635118 -0.148012 5.846621 -0.472927 -4.605558 13.711483 1.556219 -9.315523 -10.449586 4.767784 -1.206738 0.765138 9.914092 -5.309950 -20.145128 -20.380357 51.323753 -62.807991 -31.505297 14.961036 -18.614013 -33.282734 2.019854 2.415764 -8.643563 -0.999623 -29.968031 13.764891 -51.710288 -33.772393 16.615274 -19.598211 -4.892909 -5.888057 -12.865569 -65.610870 -10.398274 178.468368 73.994007 173.431171 0.471794 -10.177300 -1.152432 -0.039046 0.194253 -0.007003 -4.594167 -66.893254 26.927104 -141.750146 72.990772 -143.270185 -1.094014 -3.901693 -0.485953 -0.177036 -0.948884 -0.087358
381.426867 47.737212 62.896436 -62.311221 -30.129442 -0.197225 -0.561036 17.537685 -0.884526 -0.210903 7.796550 -0.633858 -0.210903 7.796550 -0.633858 -0.149801 5.847639 -0.471952 -4.601798 13.715366 1.549728 -9.305546 -10.443335 4.753712 -1.193566 0.763291 9.920622 -5.316073 -20.145687 -20.397607 51.338775 -62.810300 -31.533901 14.948101 -18.618092 -33.269613 2.024511 2.412290 -8.655580 -1.017751 -29.960720 13.779559 -51.686937 -33.780140 16.610768 -19.600814 -4.902750 -5.892080 -12.853586 -65.612974 -10.416325 178.453676 73.993131 173.422637 0.477918 -10.174802 -1.162112 -0.040092 0.191646 -0.005822 -4.596055 -66.896078 26.923957 -141.759396 72.988103 -143.280822 -1.082719 -3.894486 -0.483829 -0.182925 -0.955203 -0.089722
381.425432 47.737092 62.898131 -62.319184 -30.129755 -0.189580 -0.564440 17.539918 -0.881692 -0.212553 7.797425 -0.632751 -0.212553 7.797425 -0.632751 -0.151050 5.848297 -0.471101 -4.596803 13.720458 1.544976 -9.293826 -10.434782 4.742321 -1.183420 0.766035 9.927209 -5.316031 -20.148696 -20.409888 51.356001 -62.805621 -31.564747 14.934219 -18.621935 -33.263437 2.029541 2.411904 -8.661988 -1.033561 -29.957460 13.781311 -51.647241 -33.792710 16.577696 -19.627424 -4.891869 -5.873258 -12.832473 -65.615004 -10.435027 178.451038 73.990510 173.424360 0.479077 -10.172925 -1.167211 -0.039376 0.189539 -0.006225 -4.590171 -66.893984 26.918172 -141.764078 72.984422 -143.288142 -1.071026 -3.898083 -0.481606 -0.189065 -0.954883 -0.092353
381.425536 47.735762 62.901232 -62.317605 -30.127811 -0.186382 -0.573725 17.540679 -0.881800 -0.215103 7.798788 -0.631704 -0.215103 7.798788 -0.631704 -0.152971 5.849321 -0.470284 -4.594862 13.725322 1.539684 -9.287672 -10.426442 4.731132 -1.171616 0.762402 9.928125 -5.318996 -20.153536 -20.419157 51.371057 -62.804292 -31.591844 14.923129 -18.622517 -33.255882 2.032508 2.408912 -8.669812 -1.051856 -29.956438 13.786108 -51.627584 -33.790500 16.581531 -19.635100 -4.900280 -5.871001 -12.829949 -65.620275 -10.448332 178.444671 73.988037 173.417096 0.484692 -10.173503 -1.172057 -0.039692 0.190210 -0.007007 -4.587985 -66.899400 26.910551 -141.764569 72.979117 -143.292514 -1.059474 -3.895059 -0.477833 -0.194150 -0.957596 -0.092529
381.425898 47.735226 62.903576 -62.319706 -30.124501 -0.179144 -0.577527 17.542404 -0.883649 -0.215181 7.800450 -0.629970 -0.215181 7.800450 -0.629970 -0.153051 5.850567 -0.468983 -4.595677 13.731899 1.535288 -9.286924 -10.414608 4.722553 -1.168509 0.756734 9.934319 -5.318083 -20.165497 -20.426882 51.368830 -62.800095 -31.600302 14.913125 -18.616001 -33.248002 2.023086 2.405163 -8.676167 -1.061053 -29.957386 13.790312 -51.588073 -33.797809 16.544317 -19.667233 -4.894915 -5.847540 -12.811188 -65.624678 -10.469299 178.450589 73.987120 173.422976 0.488493 -10.177823 -1.170090 -0.038320 0.193590 -0.009592 -4.581225 -66.899530 26.899837 -141.757589 72.979654 -143.288277 -1.055558 -3.899419 -0.481597 -0.194835 -0.952863 -0.090208
381.426755 47.734075 62.905338 -62.318504 -30.119480 -0.179269 -0.582179 17.541412 -0.885201 -0.215464 7.801006 -0.627835 -0.215464 7.801006 -0.627835 -0.153289 5.850984 -0.467380 -4.596541 13.738083 1.530375 -9.286099 -10.403547 4.713055 -1.164996 0.754667 9.944736 -5.317412 -20.177851 -20.437153 51.370363 -62.794981 -31.612799 14.905597 -18.621692 -33.234671 2.019374 2.397012 -8.680883 -1.066293 -29.955311 13.788081 -51.589233 -33.790364 16.550309 -19.673584 -4.894227 -5.847193 -12.820681 -65.633190 -10.466677 178.434109 73.984228 173.404309 0.487528 -10.177585 -1.172531 -0.037742 0.194059 -0.010533 -4.583845 -66.904024 26.896195 -141.779940 72.985944 -143.308379 -1.059571 -3.901018 -0.483702 -0.193681 -0.948759 -0.090067
381.424084 47.734621 62.905436 -62.331703 -30.122971 -0.180364 -0.577233 17.548804 -0.878305 -0.215735 7.801684 -0.626187 -0.215735 7.801684 -0.626187 -0.153513 5.851491 -0.466142 -4.597752 13.747640 1.524821 -9.285394 -10.386270 4.702169 -1.154748 0.750412 9.952791 -5.321136 -20.180576 -20.447115 51.381031 -62.792801 -31.631519 14.891407 -18.625152 -33.227727 2.019792 2.391669 -8.683669 -1.072839 -29.948798 13.789012 -51.552094 -33.800254 16.517994 -19.704935 -4.886123 -5.827136 -12.830196 -65.628821 -10.450944 178.431034 73.983549 173.404539 0.491344 -10.176369 -1.180651 -0.036791 0.192963 -0.010903 -4.604807 -66.894697 26.928477 -141.789601 72.985323 -143.320274 -1.063814 -3.907557 -0.487636 -0.190559 -0.945334 -0.088988
381.424259 47.735018 62.908226 -62.329318 -30.121381 -0.176434 -0.583548 17.545723 -0.883494 -0.215005 7.802545 -0.624266 -0.215005 7.802545 -0.624266 -0.152990 5.852136 -0.464713 -4.598894 13.756588 1.521058 -9.285319 -10.369956 4.694690 -1.155855 0.747165 9.963551 -5.314132 -20.187163 -20.461964 51.370084 -62.787253 -31.631881 14.887005 -18.626482 -33.225674 2.015365 2.385774 -8.686257 -1.078805 -29.947462 13.788605 -51.545237 -33.798465 16.504912 -19.721268 -4.882263 -5.824442 -12.823024 -65.633595 -10.471832 178.422904 73.981706 173.398796 0.499323 -10.174724 -1.186530 -0.037814 0.192151 -0.011913 -4.599342 -66.890844 26.916160 -141.762598 72.986247 -143.293524 -1.061451 -3.909778 -0.494098 -0.185462 -0.939824 -0.085782
381.423183 47.733433 62.909726 -62.332877 -30.112003 -0.178876 -0.585979 17.545072 -0.882587 -0.214264 7.802360 -0.622052 -0.214264 7.802360 -0.622052 -0.152464 5.851996 -0.463065 -4.599591 13.766334 1.520006 -9.285407 -10.351946 4.692067 -1.148648 0.738690 9.973879 -5.308007 -20.190098 -20.476723 51.353432 -62.787826 -31.631285 14.887035 -18.627247 -33.214377 2.017572 2.380159 -8.690423 -1.090534 -29.953403 13.793683 -51.501528 -33.808846 16.456289 -19.757032 -4.866345 -5.805390 -12.837984 -65.643960 -10.459113 178.405578 73.978881 173.381930 0.500400 -10.175842 -1.190048 -0.037870 0.194039 -0.012952 -4.611576 -66.899824 26.925323 -141.781206 72.986677 -143.306227 -1.062258 -3.912403 -0.498983 -0.183916 -0.936553 -0.086989
381.423103 47.732748 62.913361 -62.334746 -30.104270 -0.182260 -0.596471 17.543605 -0.885569 -0.217412 7.801839 -0.621133 -0.217412 7.801839 -0.621133 -0.154833 5.851608 -0.462337 -4.595842 13.775738 1.518161 -9.276830 -10.335022 4.686243 -1.129098 0.733608 9.978515 -5.304734 -20.198834 -20.486054 51.353414 -62.784581 -31.635964 14.880112 -18.625567 -33.210007 2.031834 2.374174 -8.694646 -1.104698 -29.956216 13.799144 -51.490121 -33.806281 16.453647 -19.760482 -4.852616 -5.809256 -12.850370 -65.651697 -10.454115 178.387363 73.977941 173.364685 0.507259 -10.175323 -1.195670 -0.038503 0.195413 -0.012442 -4.622031 -66.909844 26.933255 -141.795206 72.983815 -143.319883 -1.056585 -3.909111 -0.491707 -0.187829 -0.937802 -0.092139
381.422370 47.733746 62.915621 -62.335085 -30.097316 -0.188891 -0.601473 17.545026 -0.881728 -0.220260 7.802317 -0.619711 -0.220260 7.802317 -0.619711 -0.156984 5.851969 -0.461235 -4.592431 13.782948 1.514857 -9.268501 -10.322269 4.678011 -1.115202 0.726265 9.980049 -5.308133 -20.211611 -20.491737 51.349537 -62.777743 -31.629398 14.878475 -18.630775 -33.200607 2.045605 2.367192 -8.696262 -1.121144 -29.966409 13.800849 -51.446128 -33.808340 16.408540 -19.798658 -4.836041 -5.791573 -12.862714 -65.654464 -10.445998 178.374967 73.979177 173.356420 0.511461 -10.174465 -1.199273 -0.036963 0.195554 -0.012763 -4.626295 -66.915687 26.936679 -141.787045 72.980847 -143.303926 -1.055871 -3.911452 -0.492236 -0.183068 -0.934079 -0.092351
381.421847 47.734720 62.919093 -62.341279 -30.093824 -0.191596 -0.602484 17.548172 -0.880785 -0.221755 7.802633 -0.618390 -0.221755 7.802633 -0.618390 -0.158119 5.852206 -0.460226 -4.592565 13.788797 1.509811 -9.266282 -10.311900 4.668014 -1.108886 0.717649 9.985385 -5.301262 -20.216910 -20.497730 51.341226 -62.770612 -31.624260 14.880339 -18.628310 -33.201956 2.048896 2.360021 -8.700826 -1.138119 -29.968186 13.813989 -51.424886 -33.807724 16.399293 -19.801323 -4.828288 -5.795782 -12.870713 -65.656518 -10.440257 178.358373 73.979691 173.342367 0.516399 -10.171170 -1.204827 -0.037188 0.194533 -0.012322 -4.630338 -66.919781 26.939757 -141.821437 72.981057 -143.333632 -1.053073 -3.911500 -0.488438 -0.189166 -0.934836 -0.095765
381.421536 47.736836 62.922289 -62.349435 -30.090721 -0.192856 -0.604690 17.549640 -0.877601 -0.223076 7.803929 -0.618396 -0.223076 7.803929 -0.618396 -0.159107 5.853180 -0.460213 -4.590832 13.795030 1.507493 -9.261588 -10.300721 4.662390 -1.100380 0.706816 9.990690 -5.297136 -20.222326 -20.499495 51.334561 -62.758006 -31.621816 14.882955 -18.630617 -33.201347 2.056809 2.355847 -8.701528 -1.149324 -29.973021 13.820546 -51.368315 -33.814614 16.340826 -19.843611 -4.821380 -5.766677 -12.870526 -65.655055 -10.442506 178.326508 73.982752 173.317814 0.520943 -10.170755 -1.213595 -0.037189 0.195823 -0.011218 -4.637986 -66.922473 26.953789 -141.830468 72.979835 -143.343017 -1.056408 -3.902274 -0.484437 -0.188988 -0.941370 -0.096173
